<mxfile host="app.diagrams.net" modified="2023-06-03T03:54:35.548Z" agent="Mozilla/5.0 (Windows NT 10.0; Win64; x64) AppleWebKit/537.36 (KHTML, like Gecko) Chrome/113.0.0.0 Safari/537.36" etag="Q99uajtXowS1XWkYl0dN" version="21.3.7" type="device">
  <diagram name="第 1 页" id="DF5y7IZ2r6XQGHwUxJyZ">
    <mxGraphModel dx="4148" dy="2248" grid="1" gridSize="10" guides="1" tooltips="1" connect="1" arrows="1" fold="1" page="1" pageScale="1" pageWidth="827" pageHeight="1169" math="0" shadow="0">
      <root>
        <mxCell id="0" />
        <mxCell id="1" parent="0" />
        <mxCell id="BHDqmNR7OS-MyUxEd7hL-1" value="DocumentEditor" style="html=1;whiteSpace=wrap;" vertex="1" parent="1">
          <mxGeometry x="60" y="520" width="110" height="50" as="geometry" />
        </mxCell>
        <mxCell id="BHDqmNR7OS-MyUxEd7hL-2" value="&lt;i&gt;Graphic&lt;/i&gt;" style="swimlane;fontStyle=1;align=center;verticalAlign=top;childLayout=stackLayout;horizontal=1;startSize=26;horizontalStack=0;resizeParent=1;resizeParentMax=0;resizeLast=0;collapsible=1;marginBottom=0;whiteSpace=wrap;html=1;" vertex="1" parent="1">
          <mxGeometry x="310" y="510" width="160" height="104" as="geometry" />
        </mxCell>
        <mxCell id="BHDqmNR7OS-MyUxEd7hL-4" value="" style="line;strokeWidth=1;fillColor=none;align=left;verticalAlign=middle;spacingTop=-1;spacingLeft=3;spacingRight=3;rotatable=0;labelPosition=right;points=[];portConstraint=eastwest;strokeColor=inherit;" vertex="1" parent="BHDqmNR7OS-MyUxEd7hL-2">
          <mxGeometry y="26" width="160" height="8" as="geometry" />
        </mxCell>
        <mxCell id="BHDqmNR7OS-MyUxEd7hL-5" value="+ Draw()&lt;br&gt;+ GetExtend()&lt;br&gt;+ Store()&lt;br&gt;+ Load()" style="text;strokeColor=none;fillColor=none;align=left;verticalAlign=top;spacingLeft=4;spacingRight=4;overflow=hidden;rotatable=0;points=[[0,0.5],[1,0.5]];portConstraint=eastwest;whiteSpace=wrap;html=1;" vertex="1" parent="BHDqmNR7OS-MyUxEd7hL-2">
          <mxGeometry y="34" width="160" height="70" as="geometry" />
        </mxCell>
        <mxCell id="BHDqmNR7OS-MyUxEd7hL-6" value="1" style="endArrow=open;html=1;endSize=12;startArrow=diamondThin;startSize=14;startFill=1;align=left;verticalAlign=bottom;rounded=0;exitX=1.007;exitY=0.632;exitDx=0;exitDy=0;exitPerimeter=0;" edge="1" parent="1" source="BHDqmNR7OS-MyUxEd7hL-1">
          <mxGeometry x="-1" y="3" relative="1" as="geometry">
            <mxPoint x="280" y="680" as="sourcePoint" />
            <mxPoint x="310" y="549.9487752588606" as="targetPoint" />
          </mxGeometry>
        </mxCell>
        <mxCell id="BHDqmNR7OS-MyUxEd7hL-7" value="ImageProxy" style="swimlane;fontStyle=1;align=center;verticalAlign=top;childLayout=stackLayout;horizontal=1;startSize=26;horizontalStack=0;resizeParent=1;resizeParentMax=0;resizeLast=0;collapsible=1;marginBottom=0;whiteSpace=wrap;html=1;" vertex="1" parent="1">
          <mxGeometry x="380" y="740" width="160" height="160" as="geometry" />
        </mxCell>
        <mxCell id="BHDqmNR7OS-MyUxEd7hL-8" value="+ fileName&lt;br&gt;+ extent" style="text;strokeColor=none;fillColor=none;align=left;verticalAlign=top;spacingLeft=4;spacingRight=4;overflow=hidden;rotatable=0;points=[[0,0.5],[1,0.5]];portConstraint=eastwest;whiteSpace=wrap;html=1;" vertex="1" parent="BHDqmNR7OS-MyUxEd7hL-7">
          <mxGeometry y="26" width="160" height="44" as="geometry" />
        </mxCell>
        <mxCell id="BHDqmNR7OS-MyUxEd7hL-9" value="" style="line;strokeWidth=1;fillColor=none;align=left;verticalAlign=middle;spacingTop=-1;spacingLeft=3;spacingRight=3;rotatable=0;labelPosition=right;points=[];portConstraint=eastwest;strokeColor=inherit;" vertex="1" parent="BHDqmNR7OS-MyUxEd7hL-7">
          <mxGeometry y="70" width="160" height="10" as="geometry" />
        </mxCell>
        <mxCell id="BHDqmNR7OS-MyUxEd7hL-10" value="+ Draw()&lt;br&gt;+ GetExtend()&lt;br&gt;+ Store()&lt;br&gt;+ Load()" style="text;strokeColor=none;fillColor=none;align=left;verticalAlign=top;spacingLeft=4;spacingRight=4;overflow=hidden;rotatable=0;points=[[0,0.5],[1,0.5]];portConstraint=eastwest;whiteSpace=wrap;html=1;" vertex="1" parent="BHDqmNR7OS-MyUxEd7hL-7">
          <mxGeometry y="80" width="160" height="80" as="geometry" />
        </mxCell>
        <mxCell id="BHDqmNR7OS-MyUxEd7hL-11" value="Image" style="swimlane;fontStyle=1;align=center;verticalAlign=top;childLayout=stackLayout;horizontal=1;startSize=26;horizontalStack=0;resizeParent=1;resizeParentMax=0;resizeLast=0;collapsible=1;marginBottom=0;whiteSpace=wrap;html=1;" vertex="1" parent="1">
          <mxGeometry x="120" y="740" width="160" height="160" as="geometry" />
        </mxCell>
        <mxCell id="BHDqmNR7OS-MyUxEd7hL-12" value="+ imageImp&lt;br&gt;+ extent" style="text;strokeColor=none;fillColor=none;align=left;verticalAlign=top;spacingLeft=4;spacingRight=4;overflow=hidden;rotatable=0;points=[[0,0.5],[1,0.5]];portConstraint=eastwest;whiteSpace=wrap;html=1;" vertex="1" parent="BHDqmNR7OS-MyUxEd7hL-11">
          <mxGeometry y="26" width="160" height="44" as="geometry" />
        </mxCell>
        <mxCell id="BHDqmNR7OS-MyUxEd7hL-13" value="" style="line;strokeWidth=1;fillColor=none;align=left;verticalAlign=middle;spacingTop=-1;spacingLeft=3;spacingRight=3;rotatable=0;labelPosition=right;points=[];portConstraint=eastwest;strokeColor=inherit;" vertex="1" parent="BHDqmNR7OS-MyUxEd7hL-11">
          <mxGeometry y="70" width="160" height="10" as="geometry" />
        </mxCell>
        <mxCell id="BHDqmNR7OS-MyUxEd7hL-14" value="+ Draw()&lt;br&gt;+ GetExtend()&lt;br&gt;+ Store()&lt;br&gt;+ Load()" style="text;strokeColor=none;fillColor=none;align=left;verticalAlign=top;spacingLeft=4;spacingRight=4;overflow=hidden;rotatable=0;points=[[0,0.5],[1,0.5]];portConstraint=eastwest;whiteSpace=wrap;html=1;" vertex="1" parent="BHDqmNR7OS-MyUxEd7hL-11">
          <mxGeometry y="80" width="160" height="80" as="geometry" />
        </mxCell>
        <mxCell id="BHDqmNR7OS-MyUxEd7hL-15" value="Extends" style="endArrow=block;endSize=16;endFill=0;html=1;rounded=0;entryX=0.328;entryY=0.973;entryDx=0;entryDy=0;entryPerimeter=0;exitX=0.5;exitY=0;exitDx=0;exitDy=0;" edge="1" parent="1" source="BHDqmNR7OS-MyUxEd7hL-11" target="BHDqmNR7OS-MyUxEd7hL-5">
          <mxGeometry width="160" relative="1" as="geometry">
            <mxPoint x="180" y="790" as="sourcePoint" />
            <mxPoint x="340" y="790" as="targetPoint" />
          </mxGeometry>
        </mxCell>
        <mxCell id="BHDqmNR7OS-MyUxEd7hL-16" value="Extends" style="endArrow=block;endSize=16;endFill=0;html=1;rounded=0;entryX=0.483;entryY=1;entryDx=0;entryDy=0;entryPerimeter=0;exitX=0.554;exitY=-0.004;exitDx=0;exitDy=0;exitPerimeter=0;" edge="1" parent="1" source="BHDqmNR7OS-MyUxEd7hL-7" target="BHDqmNR7OS-MyUxEd7hL-5">
          <mxGeometry width="160" relative="1" as="geometry">
            <mxPoint x="140" y="750" as="sourcePoint" />
            <mxPoint x="372" y="622" as="targetPoint" />
          </mxGeometry>
        </mxCell>
        <mxCell id="BHDqmNR7OS-MyUxEd7hL-17" value="" style="endArrow=block;dashed=1;endFill=0;endSize=12;html=1;rounded=0;exitX=1.002;exitY=0.166;exitDx=0;exitDy=0;exitPerimeter=0;entryX=0;entryY=0.5;entryDx=0;entryDy=0;" edge="1" parent="1" source="BHDqmNR7OS-MyUxEd7hL-10" target="BHDqmNR7OS-MyUxEd7hL-20">
          <mxGeometry width="160" relative="1" as="geometry">
            <mxPoint x="580" y="840" as="sourcePoint" />
            <mxPoint x="730" y="810" as="targetPoint" />
          </mxGeometry>
        </mxCell>
        <mxCell id="BHDqmNR7OS-MyUxEd7hL-18" value="" style="endArrow=block;dashed=1;endFill=0;endSize=12;html=1;rounded=0;" edge="1" parent="1" source="BHDqmNR7OS-MyUxEd7hL-10" target="BHDqmNR7OS-MyUxEd7hL-19">
          <mxGeometry width="160" relative="1" as="geometry">
            <mxPoint x="550" y="843" as="sourcePoint" />
            <mxPoint x="740" y="860" as="targetPoint" />
          </mxGeometry>
        </mxCell>
        <mxCell id="BHDqmNR7OS-MyUxEd7hL-19" value="if(image == 0)&lt;br&gt;return extent;&lt;br&gt;else&lt;br&gt;return image-&amp;gt;GetExtent();" style="html=1;whiteSpace=wrap;" vertex="1" parent="1">
          <mxGeometry x="750" y="850" width="110" height="90" as="geometry" />
        </mxCell>
        <mxCell id="BHDqmNR7OS-MyUxEd7hL-20" value="if(image == 0) {&lt;br&gt;image = Loadimage(fimename);&lt;br&gt;}&lt;br&gt;else {&lt;br&gt;return image-&amp;gt;GetExtent();}" style="html=1;whiteSpace=wrap;" vertex="1" parent="1">
          <mxGeometry x="750" y="680" width="110" height="140" as="geometry" />
        </mxCell>
      </root>
    </mxGraphModel>
  </diagram>
</mxfile>
